<svg width="15" height="16" viewBox="0 0 15 16" fill="none" xmlns="http://www.w3.org/2000/svg">
<g id="ep:arrow-up-bold">
<path id="Vector" d="M4.96217 2.03376C4.78642 2.20957 4.68769 2.44799 4.68769 2.69658C4.68769 2.94517 4.78642 3.18358 4.96217 3.35939L9.6028 8.00001L4.96217 12.6406C4.7914 12.8175 4.69691 13.0543 4.69904 13.3001C4.70118 13.5459 4.79977 13.781 4.97359 13.9548C5.14741 14.1287 5.38255 14.2273 5.62836 14.2294C5.87417 14.2315 6.11098 14.137 6.2878 13.9663L11.5912 8.66283C11.767 8.48702 11.8657 8.24861 11.8657 8.00001C11.8657 7.75142 11.767 7.51301 11.5912 7.3372L6.2878 2.03376C6.11199 1.85801 5.87358 1.75928 5.62499 1.75928C5.37639 1.75928 5.13798 1.85801 4.96217 2.03376Z" fill="white"/>
</g>
</svg>
