<svg width="30" height="30" viewBox="0 0 30 30" fill="none" xmlns="http://www.w3.org/2000/svg">
<g id="uil:youtube">
<path id="Vector" d="M28.75 12.1375C28.8118 10.3483 28.4205 8.5725 27.6125 6.97498C27.0643 6.31948 26.3034 5.87712 25.4625 5.72498C21.9844 5.40939 18.4919 5.28004 15 5.33748C11.5208 5.27743 8.04089 5.40261 4.575 5.71248C3.88978 5.83713 3.25565 6.15853 2.75 6.63748C1.625 7.67498 1.5 9.44998 1.375 10.95C1.19364 13.6469 1.19364 16.353 1.375 19.05C1.41117 19.8942 1.53687 20.7323 1.75 21.55C1.90072 22.1813 2.20566 22.7654 2.6375 23.25C3.14659 23.7543 3.79548 24.094 4.5 24.225C7.1949 24.5576 9.91028 24.6955 12.625 24.6375C17 24.7 20.8375 24.6375 25.375 24.2875C26.0968 24.1645 26.764 23.8244 27.2875 23.3125C27.6375 22.9624 27.8989 22.5339 28.05 22.0625C28.497 20.6908 28.7166 19.2551 28.7 17.8125C28.75 17.1125 28.75 12.8875 28.75 12.1375ZM12.175 18.5625V10.825L19.575 14.7125C17.5 15.8625 14.7625 17.1625 12.175 18.5625Z" fill="#2A2A2A"/>
</g>
</svg>
